<?xml version="1.0" encoding="UTF-8"?>
<svg xmlns="http://www.w3.org/2000/svg" xmlns:xlink="http://www.w3.org/1999/xlink" width="40pt" height="40pt" viewBox="0 0 40 40" version="1.1">
<g id="surface1">
<path style=" stroke:none;fill-rule:nonzero;fill:rgb(0%,0%,0%);fill-opacity:1;" d="M 19.933594 36.609375 L 4.984375 36.609375 C 4.066406 36.609375 3.324219 35.867188 3.324219 34.949219 L 3.324219 5.050781 C 3.324219 4.132812 4.066406 3.390625 4.984375 3.390625 L 19.933594 3.390625 C 20.851562 3.390625 21.59375 2.644531 21.59375 1.726562 C 21.59375 0.808594 20.851562 0.0664062 19.933594 0.0664062 L 4.984375 0.0664062 C 2.234375 0.0664062 0 2.300781 0 5.050781 L 0 34.949219 C 0 37.699219 2.234375 39.933594 4.984375 39.933594 L 19.933594 39.933594 C 20.851562 39.933594 21.59375 39.191406 21.59375 38.273438 C 21.59375 37.355469 20.851562 36.609375 19.933594 36.609375 Z M 19.933594 36.609375 "/>
<path style=" stroke:none;fill-rule:nonzero;fill:rgb(0%,0%,0%);fill-opacity:1;" d="M 39.503906 18.816406 L 29.40625 8.851562 C 28.753906 8.207031 27.699219 8.214844 27.054688 8.867188 C 26.410156 9.519531 26.417969 10.570312 27.074219 11.214844 L 34.289062 18.339844 L 14.949219 18.339844 C 14.03125 18.339844 13.289062 19.082031 13.289062 20 C 13.289062 20.917969 14.03125 21.660156 14.949219 21.660156 L 34.289062 21.660156 L 27.074219 28.785156 C 26.417969 29.429688 26.414062 30.480469 27.054688 31.132812 C 27.382812 31.460938 27.8125 31.628906 28.238281 31.628906 C 28.660156 31.628906 29.082031 31.46875 29.40625 31.148438 L 39.503906 21.183594 C 39.820312 20.871094 40 20.445312 40 20 C 40 19.554688 39.820312 19.132812 39.503906 18.816406 Z M 39.503906 18.816406 "/>
</g>
</svg>
