<?xml version="1.0" encoding="UTF-8"?>
<svg xmlns="http://www.w3.org/2000/svg" xmlns:xlink="http://www.w3.org/1999/xlink" width="27pt" height="27pt" viewBox="0 0 27 27" version="1.1">
<g id="surface1">
<path style=" stroke:none;fill-rule:nonzero;fill:rgb(0%,0%,0%);fill-opacity:1;" d="M 13.5 27 C 9.894531 27 6.503906 25.597656 3.953125 23.046875 C 1.402344 20.496094 0 17.105469 0 13.5 C 0 9.894531 1.402344 6.503906 3.953125 3.953125 C 6.503906 1.402344 9.894531 0 13.5 0 C 17.105469 0 20.496094 1.402344 23.046875 3.953125 C 25.597656 6.503906 27 9.894531 27 13.5 C 27 17.105469 25.597656 20.496094 23.046875 23.046875 C 20.496094 25.597656 17.105469 27 13.5 27 Z M 13.5 2.109375 C 7.21875 2.109375 2.109375 7.21875 2.109375 13.5 C 2.109375 19.78125 7.21875 24.890625 13.5 24.890625 C 19.78125 24.890625 24.890625 19.78125 24.890625 13.5 C 24.890625 7.21875 19.78125 2.109375 13.5 2.109375 Z M 19.300781 12.445312 L 7.699219 12.445312 L 7.699219 14.554688 L 19.300781 14.554688 Z M 19.300781 12.445312 "/>
</g>
</svg>
