<?xml version="1.0" encoding="UTF-8"?>
<svg xmlns="http://www.w3.org/2000/svg" xmlns:xlink="http://www.w3.org/1999/xlink" width="40pt" height="40pt" viewBox="0 0 40 40" version="1.1" fill="#000000">
<g id="surface1">
<path style=" stroke:none;fill-rule:nonzero;fill:rgb(0%,0%,0%);fill-opacity:1;" d="M 28.109375 11.332031 L 31.617188 11.332031 L 26.417969 2.414062 C 26 1.691406 25.070312 1.445312 24.347656 1.871094 C 23.625 2.289062 23.378906 3.21875 23.804688 3.941406 Z M 28.109375 11.332031 "/>
<path style=" stroke:none;fill-rule:nonzero;fill:rgb(0%,0%,0%);fill-opacity:1;" d="M 16.210938 3.941406 C 16.628906 3.21875 16.390625 2.289062 15.667969 1.871094 C 14.945312 1.453125 14.019531 1.691406 13.597656 2.414062 L 8.402344 11.339844 L 11.90625 11.339844 Z M 16.210938 3.941406 "/>
<path style=" stroke:none;fill-rule:nonzero;fill:rgb(0%,0%,0%);fill-opacity:1;" d="M 37.421875 14.066406 L 2.570312 14.066406 C 1.148438 14.066406 0 15.214844 0 16.636719 L 0 19.484375 C 0 20.90625 1.148438 22.054688 2.570312 22.054688 L 3.375 22.054688 L 5.855469 35.5 C 6.167969 37.082031 7.613281 38.339844 9.113281 38.339844 L 16.570312 38.339844 C 17.226562 38.339844 18.082031 38.339844 18.953125 38.339844 L 20.53125 38.339844 C 21.398438 38.339844 22.253906 38.339844 22.910156 38.339844 L 30.367188 38.339844 C 31.871094 38.339844 33.316406 37.082031 33.628906 35.5 L 36.125 22.046875 L 37.429688 22.046875 C 38.851562 22.046875 40 20.898438 40 19.476562 L 40 16.628906 C 39.992188 15.214844 38.84375 14.066406 37.421875 14.066406 Z M 14.191406 27.5 L 14.191406 33.296875 C 14.191406 34.125 13.515625 34.75 12.738281 34.75 C 11.90625 34.75 11.28125 34.078125 11.28125 33.296875 L 11.28125 25.167969 C 11.28125 24.339844 11.957031 23.714844 12.738281 23.714844 C 13.566406 23.714844 14.191406 24.386719 14.191406 25.167969 Z M 18.855469 27.5 L 18.855469 33.296875 C 18.855469 34.125 18.179688 34.75 17.402344 34.75 C 16.570312 34.75 15.949219 34.078125 15.949219 33.296875 L 15.949219 25.167969 C 15.949219 24.339844 16.621094 23.714844 17.402344 23.714844 C 18.179688 23.714844 18.855469 24.386719 18.855469 25.167969 Z M 23.542969 30.867188 L 23.542969 33.296875 C 23.542969 34.078125 22.917969 34.75 22.089844 34.75 C 21.308594 34.75 20.636719 34.125 20.636719 33.296875 L 20.636719 25.167969 C 20.636719 24.386719 21.308594 23.714844 22.089844 23.714844 C 22.871094 23.714844 23.542969 24.339844 23.542969 25.167969 Z M 28.207031 30.867188 L 28.207031 33.296875 C 28.207031 34.078125 27.582031 34.75 26.753906 34.75 C 25.972656 34.75 25.300781 34.125 25.300781 33.296875 L 25.300781 25.167969 C 25.300781 24.386719 25.925781 23.714844 26.753906 23.714844 C 27.535156 23.714844 28.207031 24.339844 28.207031 25.167969 Z M 28.207031 30.867188 "/>
</g>
</svg>
