<?xml version="1.0" encoding="UTF-8"?>
<svg xmlns="http://www.w3.org/2000/svg" xmlns:xlink="http://www.w3.org/1999/xlink" width="27pt" height="27pt" viewBox="0 0 27 27" version="1.1">
<g id="surface1">
<path style=" stroke:none;fill-rule:nonzero;fill:rgb(0%,0%,0%);fill-opacity:1;" d="M 25.65625 0.902344 L 25.625 0.871094 C 25.011719 0.308594 24.207031 0 23.375 0 C 22.4375 0 21.539062 0.394531 20.90625 1.085938 L 8.972656 14.152344 C 8.863281 14.273438 8.78125 14.414062 8.730469 14.5625 L 7.328125 18.769531 C 7.164062 19.257812 7.246094 19.796875 7.546875 20.210938 C 7.847656 20.628906 8.332031 20.875 8.839844 20.875 C 9.066406 20.875 9.28125 20.832031 9.484375 20.742188 L 13.546875 18.964844 C 13.695312 18.898438 13.828125 18.804688 13.9375 18.691406 L 25.871094 5.621094 C 27.113281 4.261719 27.015625 2.148438 25.65625 0.902344 Z M 10.015625 17.996094 L 10.835938 15.527344 L 10.90625 15.453125 L 12.46875 16.875 L 12.398438 16.953125 Z M 24.167969 4.066406 L 14.023438 15.175781 L 12.460938 13.75 L 22.609375 2.640625 C 22.808594 2.421875 23.078125 2.308594 23.375 2.308594 C 23.632812 2.308594 23.882812 2.398438 24.070312 2.574219 L 24.101562 2.605469 C 24.523438 2.988281 24.550781 3.644531 24.167969 4.066406 Z M 24.167969 4.066406 "/>
<path style=" stroke:none;fill-rule:nonzero;fill:rgb(0%,0%,0%);fill-opacity:1;" d="M 23.34375 10.632812 C 22.707031 10.632812 22.191406 11.148438 22.191406 11.785156 L 22.191406 21.566406 C 22.191406 23.179688 20.875 24.496094 19.257812 24.496094 L 5.292969 24.496094 C 3.675781 24.496094 2.367188 23.179688 2.367188 21.566406 L 2.367188 7.710938 C 2.367188 6.097656 3.675781 4.785156 5.292969 4.785156 L 15.402344 4.785156 C 16.039062 4.785156 16.554688 4.265625 16.554688 3.628906 C 16.554688 2.992188 16.039062 2.476562 15.402344 2.476562 L 5.292969 2.476562 C 2.402344 2.476562 0.0585938 4.828125 0.0585938 7.710938 L 0.0585938 21.566406 C 0.0585938 24.457031 2.40625 26.800781 5.292969 26.800781 L 19.257812 26.800781 C 22.144531 26.800781 24.496094 24.457031 24.496094 21.566406 L 24.496094 11.785156 C 24.496094 11.148438 23.980469 10.632812 23.34375 10.632812 Z M 23.34375 10.632812 "/>
</g>
</svg>
